<?xml version="1.0" encoding="UTF-8"?>
<svg id="Layer_1" data-name="Layer 1" xmlns="http://www.w3.org/2000/svg" version="1.1" viewBox="0 0 1300 1300">
  <defs>
    <style>
      .cls-1 {
        fill: #000;
        stroke-width: 0px;
      }
    </style>
  </defs>
  <path class="cls-1" d="M0,624.07h23.81v-16.66h33.97v16.23h34.55v-33.44h16.48v50.34h-16.38v34.68h16.39v33.73h-16.58v16.97h-16.8v17.71h33.29v16.44h-33.55v17.1H7.07v-16.12H0c0-5.67,0-11.33,0-17,2.24-.26,4.48-.52,6.62-.77v-16.77c-2.41-.17-4.52-.31-6.62-.46,0-34,0-67.99,0-101.99ZM23.68,692.15v-33.97H6.78v33.97h16.9ZM58.24,658.09v34.02h16.83v-34.02h-16.83Z"/>
  <path class="cls-1" d="M0,279.1h38.53v16.53h17.47v-16.66h16.57v118.92h-16.58v17.12h-17.07v17.64h33.53v16.21h-33.66v17.25h-17.38v16.97H0v-67.99h21.61v-17H0v-118.99ZM21.66,347.06v33.77h17.04v-33.77h-17.04Z"/>
  <path class="cls-1" d="M398.99,1300v-16.76h16.77v-67.96h16.78v16.39h17.28v-16.67h17.16v-16.73h33.95v16.55h16.97v17.15c5.49,0,10.59.16,15.66-.16.83-.05,2.08-2.23,2.16-3.48.27-4.27.1-8.57.1-13.11h16.3v67.73h16.85v17.05h-170ZM518.58,1248.67h-17.35v34.49h17.35v-34.49ZM449.75,1248.53v34.62h17.15v-34.62h-17.15Z"/>
  <path class="cls-1" d="M1299.97,483.08c-3.8.18-7.6.36-12.02.58v-17.26h-17.22v-17.05h-34.3v-16.58c8.54,0,16.81,0,25.08,0q9.11-.01,9.11-8.9v-8.5h-17.27v-17.2h-16.85v-119.07h16.41v16.44h17.64v-16.43h29.43v118.99h-12.57v17h12.57v67.99ZM1270.26,346.85v34.12h17.19v-34.12h-17.19Z"/>
  <path class="cls-1" d="M0,919.04h20.92v16.87h16.9v-33.48h16.99v85.07h17.54v-16.68h16.33v33.2h-16.43v17.19h-17.13v16.98h-17.27v51.81l.17-.17h-16.86v-33.8H0v-136.99ZM37.81,987.5v-17.17h-16.81v17.17h16.81Z"/>
  <path class="cls-1" d="M534.99.13v51.6h16.89v16.53h-16.43v17.65h33.63v16.71h-50.39v-51.25h-17.14v-16.88h-34.52v16.77h-17.26c0,12.6,0,24.55,0,36.51,0,3.83.29,7.69-.07,11.48-.12,1.27-1.82,3.4-2.82,3.41-15.79.22-31.59.15-47.7.15v-16.57h33.35v-17.69h-16.31v-16.49h16.76V.13h102Z"/>
  <path class="cls-1" d="M1299.97,1056.02h-13.49v33.66h-16.49v-51.07h-17.1v-17.15h-17.35v-17.22h-16.79v-33.36h16.13v16.8c5.5,0,10.62.26,15.67-.23.96-.09,2.31-3.18,2.33-4.89.16-24.83.12-49.65.12-74.48,0-1.8,0-3.61,0-5.73h16.13v33.52h17.68v-16.83h13.16v136.99ZM1269.45,987.17h17.07v-16.66h-17.07v16.66Z"/>
  <path class="cls-1" d="M1299.97,105.12h-26.55v33.99h-50.67v-15.89h16.63v-17.34c4.74,0,8.87-.21,12.95.06,3.6.24,4.67-1.18,4.47-4.59-.24-4.13-.06-8.28-.06-13.68h-35.09l.08.11c.37-5.23.74-10.45,1.15-16.27h33.54v-17.17h-16.55V2.65c-4.82,0-9.08.22-13.3-.12-1.59-.13-3.08-1.56-4.61-2.41,17,0,34,0,51,0-1.3.75-2.57,2.05-3.92,2.14-4.23.28-8.5.1-12.75.1v35.05h16.91v16.7h26.76v50.99Z"/>
  <path class="cls-1" d="M59,.13c-1.24.85-2.43,2.33-3.72,2.42-4.28.31-8.6.12-13.29.12v51.13h-16.95v17.41h33.91l-.17-.17v16.92H25.13v17.79h16.1v17.1h17.62c0,5.01.2,9.31-.14,13.56-.09,1.08-1.86,2.89-2.87,2.9-15.78.19-31.57.13-47.97.13v-34.32H0v-50.99h8.09v-17.06l-.11.19h16.71V2.6c-4.43,0-8.56.2-12.65-.11-1.4-.11-2.69-1.53-4.03-2.35,17,0,34,0,51,0Z"/>
  <path class="cls-1" d="M1222.97,1300v-31.06h16.42v-17.16c4.9,0,9.17-.16,13.42.05,3.11.15,4.11-1.07,3.99-4.06-.17-4.27-.04-8.56-.04-13.29,12.12,0,23.72.03,35.32-.02,2.64-.01,5.27-.3,7.9-.46v50.99h-27v15h-50Z"/>
  <path class="cls-1" d="M0,1234.01h24.68v17.6h17.02v17.01h17.3v31.38H8v-14.47c-3.18.19-5.59.33-8,.47,0-17.33,0-34.66,0-51.99Z"/>
  <path class="cls-1" d="M1299.97,726.06h-10.02v-16.84h-16.77v-33.9h16.38v-34.58h-16.37v-50.52h15.88v33.84h10.9v101.99Z"/>
  <path class="cls-1" d="M1299.97,37.13h-25.66V3.13h25.66v34Z"/>
  <path class="cls-1" d="M1299.97,760.06h-26.75v-16h26.75v16Z"/>
  <path class="cls-1" d="M414.99.13v16.67h-16V.13h16Z"/>
  <path class="cls-1" d="M568.99.13v16.7h-16V.13h16Z"/>
  <path class="cls-1" d="M0,3.13c2.28.14,4.55.28,7.97.5,0,11.33,0,22.48,0,33.62,0,0,.11-.19.11-.19-2.7.02-5.39.04-8.09.06V3.13Z"/>
  <path class="cls-1" d="M1299.97,795.05c-3.11-.16-6.22-.33-9.69-.51v-16.49h9.69v17Z"/>
  <path class="cls-1" d="M0,778.05h6.21v16.33c-2.32.25-4.27.46-6.21.67,0-5.67,0-11.33,0-17Z"/>
  <path class="cls-1" d="M929.81,605.81h-33.15v-16.61h-17.07v-17.13h-17.1v-17.07h-34.58v16.72h-16.96v17.05h-17.32v17.02h-33.52v-16.38h16.54v-34.21h17.05v-34.8h-16.73v-34.25c-5.54,0-10.49-.14-15.42.13-.87.05-2.33,1.82-2.35,2.81-.18,9.49-.07,18.99-.15,28.49-.02,2.61,1.07,3.54,3.6,3.47,4.3-.11,8.6-.03,13.23-.03v16.6h-16.54v16.77h-16.33v-101.73h16.04v16.62h17.76v-16.79h16.86v-17.29h-16.36v-16.72h33.52v-17.09h67.96v16.66h34.08v16.88h-16.52v17.37h16.68v16.9h17.87v-16.49h16.14v101.65h-15.96v-16.43h-16.9v-16.76h16.33v-34.59h-17.13v33.66h-17.02v34.56h16.63v34.22h16.83v16.78ZM879.13,486.65v-34.22h-16.81v34.22h16.81ZM827.88,452.46h-16.75v34.12h16.75v-34.12Z"/>
  <path class="cls-1" d="M977.41,124.27h16.35v16.61h34.96v-16.46h33.49v16.46h34.8v-16.49h16.4v33.63h-16.41v34.28h16.99v-16.49h16.87v33.85h16.73v84.93h-33.1v-33.32h16.41v-17.73h-16.67v-16.98h-17.14v85.55h16.44v16.66h-50.39v-67.9h-34.83v67.85h-50.82v-16.31h16.45v-85.84h-16.83v16.67h-16.89v17.76h16.36v33.54h-33.31v-84.56h16.74v-34.15h16.87v16.57h17.13v-34.06h-16.61v-34.06ZM1028.42,226.4h34.16v-16.84h-34.16v16.84ZM1011.35,158.33v34.19c5.07,0,9.85.15,14.62-.12.96-.05,2.61-1.66,2.63-2.57.19-10.42.12-20.85.12-31.5h-17.36ZM1062.99,158.29v33.9h16.57v-33.9h-16.57Z"/>
  <path class="cls-1" d="M235.97,293.47h-16.98v-16.79h-34v-16.76h33.78v-17.19h16.75v-17.13h-17.14v16.29h-16.56v-16.59h-16.85v-68.08h16.68v-34.13h17.04v-16.89h68.04v16.66h17.02v34.18h16.98v67.95h-16.62v16.77h-16.94v-16.26h-17.03v17.21c4.27,0,8.55.12,12.81-.04,3.05-.12,4.12,1.06,3.97,4.09-.21,4.13-.05,8.29-.05,12.98h33.83v16.4h-33.65v17.29h-17.18v16.86h-33.89v-16.83ZM201.34,190.87h34.27v-16.68h-34.27v16.68ZM269.82,190.91h34.09v-16.68h-34.09v16.68Z"/>
  <path class="cls-1" d="M1000.12,912.92h33.54v-16.76h-16.73v-51.71h-17.04v-17.19h-17.04v-50.57h16.12v33.69h17.67v-16.36h33.77v16.43h34.46v-16.5h33.93v16.8c5.53,0,10.49.2,15.4-.18.92-.07,2.33-2.47,2.37-3.82.22-8.33.11-16.66.11-24.99,0-1.61,0-3.22,0-5.09h16.14v50.41h-16.6v17.25h-17.17v51.52h-16.83v17.26h33.4v16.67h-33.31v17.69h16.75v17.18h16.64v16.15h-33.37v-16.54h-16.99v-16.78h-34.71v16.52h-17.15v16.88h-33.29v-16.11h16.5v-17.24h17.02v-17.4h-33.41v-17.36l-.17.15ZM1050.57,844.88v-17.74c-5.03,0-9.67-.11-14.28.09-1,.04-2.75,1.18-2.78,1.88-.24,5.21-.13,10.44-.13,15.77h17.19ZM1085.06,827.39v17.37h17.28v-17.37h-17.28Z"/>
  <path class="cls-1" d="M367.9,863.14c-4.52,0-8.66.16-12.79-.05-3.14-.16-3.9,1.13-3.99,4.08-.38,13.57-.46,13.56,13.22,13.8,1.13.02,2.25.12,3.87.21v16.61h16.98v16.34h-32.7v-16.69h-18.01v51.58h16.39v16.69h-33.27v-33.58h-34.44v33.57h-33.72v-16.35h16.25v-51.54h-16.7v16.45h-33.66v-16.14h16.51v-17.02h16.84v-17.76h-16.35v-85.03h16.47v-16.89h16.95v33.62h16.99v16.94h34.81v-16.7h16.97v-33.89h16.54v16.54h16.85v85.23ZM317.18,863.45h17.1v-33.95h-17.1v33.95ZM282.87,863.6v-34.22h-16.77v34.22h16.77Z"/>
  <path class="cls-1" d="M857.29,943.85h-33.33v-67.71h-34.79v67.65h-33.53v-16.35h16.69v-68.86h-16.95v-16.8h-17.41v16.61h-16.89v17.45h16.43v16.71h-33.12v-50.37h16.45v-17.19h17.24v-17.04h17.18v-51.27h16.61v16.34h17.62v-33.49h33.82v33.61h17.54v-16.58h16.57v51.18h17.26v17.01h17.18v17.16h16.74v50.82h-33.2v-16.4h16.31v-17.66h-16.46v-16.83h-17.39v16.53h-17.22v68.96h16.62v16.54ZM840.75,790.4h-17.41v16.33h-33.76v-16.37h-17.28v17.62h16.89v16.52h34.94v-16.87h16.62v-17.24Z"/>
  <path class="cls-1" d="M686.06,1143.77v-16.61h16.76v-17.17h17v-17.03h16.97v-17.21h17.14v-16.87h34.05v16.72h16.94v17.08h17.01v17.05h17.07v17.18h17v16.78h-16.74v34.09h-17.04v17.02h-16.8v17.65h33.7c0,10.16.18,19.79-.09,29.41-.11,3.94,1.03,5.4,5.05,5.05,3.78-.33,7.62-.07,11.84-.07v15.95h-32.97v-16.41h-17.26v-17.3h-17.22v-16.7h-34.43v16.44h-17.17v17.13h-17.04v16.92h-33.66v-15.88h16.64v-34.4h33.99v-17.47h-16.72v-16.97h-17.08v-34.38h-16.96ZM754.1,1144.28l-.16-.17v16.71h34.53v-16.85h16.83v-17.65h-17.12v-16.75h-34.39v16.61h-16.97v18.11h17.28Z"/>
  <path class="cls-1" d="M255.92,465.32h33.88v33.64h17.48v-34.17c-4.2,0-8.6-.15-12.99.05-3.08.14-4.15-1.05-4.01-4.06.18-3.96.04-7.94.04-12.32h67.67v16.21h-16.43v34.36h17.26v-33.71h34.25l-.17-.17v33.72h-17.19v17.16h-17.1v17.35h16.72v17.34h17.06v16.56c-4.01,0-7.8.25-11.54-.07-4.06-.34-5.8.91-5.43,5.21.33,3.77.07,7.59.07,11.96-4.65,0-8.78.17-12.89-.06-3.21-.18-4.55.84-4.37,4.19.22,4.12.05,8.26.05,13.07h-16.82v17.44h17.07v17.06h16.86v16.69h-33.37v-16.57h-34.94v16.59h-33.63v-16.42h16.91v-17.1h16.76v-17.62h-16.78v-17.15h-17.06v-17h-16.85v-16.54h16.53v-17.15h17.1v-17.46h-16.71v-17.29h-17.25v-33.88l-.16.16Z"/>
  <path class="cls-1" d="M484.71,961.83v16.51h-16.43v-33.29h16.59v-17h16.91v-34.07h17.11v16.51h17.35v-33.79h33.78v33.74h17.68v-16.48h16.63v33.84h17.06v17h17.32v20.17c0,15.63-.14,15.75-16.75,13.1v-16.28h-17.63c0,4.65-.11,8.95.04,13.24.1,2.84-.99,3.84-3.81,3.72-4.27-.18-8.56-.05-13.42-.05v17.11h-16.74v17.28h16.78v17.23c4.46,0,8.28.23,12.06-.06,3.86-.3,5.29.86,5.17,4.95-.28,9.62-.09,19.25-.09,29.35h16.78v16.34h-33.09v-16.72h-17.26v-16.73h-34.59v16.46h-17.19v17h-33.69v-16.06h16.72v-34.43h17.01v-16.96h16.95v-17.46h-16.71v-17.37h-17.13v-16.8h-17.43ZM587.2,961.73c.28-.54.56-.82.56-1.11.07-6.65.14-13.29.15-19.94q.02-14.05-13.91-13.51c-.5.02-1.16-.18-1.46.06-.9.73-2.35,1.61-2.36,2.46-.16,10.58-.11,21.17-.11,32.04h17.13ZM519.33,927.45v34.23h16.45v-34.23h-16.45Z"/>
  <path class="cls-1" d="M619.96,323.02h-16.99v33.68h-16.83v-16.46h-17.52v34.03h16.87v17.38h17.3v34.25h16.8v16.11h-33.52v-33.52h-68.81v33.59h-33.84v-15.93h17.13v-34.38h16.96v-17.33h17.02v-34.18h-17.47v16.55h-16.34v-33.84h-17.79l.18.18v-16.91h17.07v-17.85h-16.68v-50.36h16.41v16.86h17.01v16.67h17.69v-33.53h33.76v33.64h17.35v-16.74h17.12v-16.92h16.82v50.35h-16.65v17.47h16.76v17.34l.18-.18ZM585.79,305.95h-17.14v16.87h17.14v-16.87ZM517.26,305.42v17.28h17.62c0-5.02.14-9.65-.11-14.26-.06-1.05-1.42-2.84-2.25-2.89-4.92-.28-9.87-.14-15.26-.14Z"/>
  <path class="cls-1" d="M545.88,596.36h17.29v-17.1h17.24v-17.06h33.57v16.71h17.28v16.95h17.09v17.17h17.41v16.92h17.17v17.12l.15-.16h-17.1v34.03h-17.31v51.06h-16.56v-16.43h-17.2v-17.08h-34.73v16.6h-17.01v16.86h-17.02v-50.67h-16.88v-34.41h-17.32l.15.15v-16.81h16.99v-17.19h16.94v-16.83l-.15.16ZM563.18,630.05v34.25h17.17v-34.25h-17.17ZM631.81,630.03c-5.34,0-10.24-.15-15.13.13-.94.05-2.54,1.75-2.55,2.71-.19,10.27-.12,20.55-.12,30.97h17.8v-33.81Z"/>
  <path class="cls-1" d="M1059.3,1122.85h17.41v-33.92h16.34v50.85h17.03v16.9h-16.84v34.09h-16.88v17.42h33.7v16.68h-33.56v51.94h16.11v16.39h-32.8v-33.67h-34.78v33.57h-33.66v-16.1h16.32v-51.71h-16.37v-16.86h16.42v-17.4h-16.7v-34.43h-16.89v-16.57h16.81v-51.1h16.81v33.81h16.97v16.91h34.56v-16.81ZM1059.31,1156.91v16.82h17.14v-16.82h-17.14ZM1024.81,1173.81v-16.88h-16.72v16.88h16.72Z"/>
  <path class="cls-1" d="M1028.96,506.2h34.44v-16.9h17v-16.9h33.7v16.66h16.88v17.17h35.01l-.18-.18v16.89h-17.73v17.08h-33.84c0,3.66,0,6.91,0,10.16-.02,6.83.05,13.66-.1,20.49-.07,3.1.8,4.61,4.23,4.4,4.28-.25,8.59-.06,13.49-.06v-17.12h17.1c0-4.72.11-8.99-.04-13.24-.09-2.76.89-3.95,3.74-3.86,4.14.14,8.29.04,12.78.04v50.58h-16.75v17.22h-17.3v17h-17.2v17.08h-33.53v-16.87h-17.05v-17.16h-17.35v-17.18h-16.81v-50.23h16.39v16.54h16.99v16.8h17.21v-34.3h-33.85v-17.07h-17.06v-17.22l-.18.18Z"/>
  <path class="cls-1" d="M719.95,140.13v-17h-16.68v-33.96h16.53v-16.77h102.2v16.53h16.76v33.8h-16.54v17.02h-16.9v17.47h16.54v17.04h16.92v16.83h-33.6v16.94h-17.11v34.14h-34.15v-33.87h-16.87v-16.97h-33.76v-16.75h16.69v-17.21h16.64v-17.24h-16.68ZM736.7,122.87h68.57v-17.09h-68.57v17.09Z"/>
  <path class="cls-1" d="M281.65,1217.75h-16.51v-16.59h-34.96v16.47h-16.5v-33.92h-17.12v-17.18h-16.89v-33.71h16.74c0-10.27.22-19.91-.1-29.54-.14-4.1,1.25-5.1,5.1-5.01,9.61.23,19.24.08,29.29.08v-16.69h33.44v16.65h34.54v34.37h16.79v33.66h-16.61v17.1h-17.21v34.31ZM230.4,1132.56h-17v33.95h17v-33.95ZM281.57,1166.74v-34.27h-16.65v34.27h16.65Z"/>
  <path class="cls-1" d="M1217.96,1072.73v16.93h-16.43v-84.43h16.37v50.61h16.69v16.89h-16.63Z"/>
  <path class="cls-1" d="M105.78,1089.71h-16.09v-16.73h-16.84v-16.95h16.71v-50.83h16.22v84.52Z"/>
  <path class="cls-1" d="M255.5,618.56h-16.24v-50.3h16.24v50.3Z"/>
  <path class="cls-1" d="M409.52,618.6h-16.06v-50.33h16.06v50.33Z"/>
  <path class="cls-1" d="M682.92,647.07h16.73v50.82h-16.57c0-17.11,0-34.05,0-50.98,0,0-.15.16-.15.16Z"/>
  <path class="cls-1" d="M511.96,646.88v51.04h-16.74v-50.88c5.71,0,11.3,0,16.89,0,0,0-.15-.15-.15-.15Z"/>
  <path class="cls-1" d="M857.35,1144.2h15.87v50.59h-15.87v-50.59Z"/>
  <path class="cls-1" d="M669.16,1144.17h15.62v50.52h-15.62v-50.52Z"/>
  <path class="cls-1" d="M840.26,191.97h15.52v50.09h-15.52v-50.09Z"/>
  <path class="cls-1" d="M686.27,191.95h15.54v50.11h-15.54v-50.11Z"/>
  <path class="cls-1" d="M1045.7,643.47v33.27h-16.2v-33.27h16.2Z"/>
  <path class="cls-1" d="M256.08,465.15h-33.69v-16.7h33.54c0,5.67,0,11.26,0,16.86,0,0,.16-.16.16-.16Z"/>
  <path class="cls-1" d="M162.02,1184.19v33.28h-16.77v-33.12h16.91l-.14-.16Z"/>
  <path class="cls-1" d="M655.75,979.39v33.22h-16.47v-33.22h16.47Z"/>
  <path class="cls-1" d="M737.43,243.28h16.13v33.22h-16.13v-33.22Z"/>
  <path class="cls-1" d="M299.06,1251.79h-16.73v-33.26h16.56v33.43l.17-.17Z"/>
  <path class="cls-1" d="M332.61,1184.58c5.59-.27,11.17-.53,17.08-.81v33.77h-17.05v-33.03s-.03.07-.03.07Z"/>
  <path class="cls-1" d="M465.79,340.05v33.71h-16.4v-33.54c5.43,0,11,0,16.57,0,0,0-.18-.17-.18-.17Z"/>
  <path class="cls-1" d="M1165.48,676.89h-16.09v-33.41h16.09v33.41Z"/>
  <path class="cls-1" d="M529.22,766.48v-33.07h16.43v33.07h-16.43Z"/>
  <path class="cls-1" d="M320.82,294.47v15.96h-33.54v-15.96h33.54Z"/>
  <path class="cls-1" d="M649.16,766.57v-33.25h16.1v33.25h-16.1Z"/>
  <path class="cls-1" d="M393.08,465.32v-16.84h33.55v16.66c-11.26,0-22.49,0-33.72,0,0,0,.17.17.17.17Z"/>
  <path class="cls-1" d="M804.61,276.52h-16.02v-33.24h16.02v33.24Z"/>
  <path class="cls-1" d="M637.48,373.73v-33.17h16.19v33.17h-16.19Z"/>
  <path class="cls-1" d="M196.06,1251.92v-33.51h16.51v33.34h-16.68l.16.17Z"/>
  <path class="cls-1" d="M1063.72,643.48h16.03v33.28h-16.03v-33.28Z"/>
  <path class="cls-1" d="M957.06,1241.82v-16h33.42v16h-33.42Z"/>
  <path class="cls-1" d="M467.26,979.3v33.49h-15.94v-33.49h15.94Z"/>
  <path class="cls-1" d="M586.38,51.03h-16.02V17.89h16.02v33.14Z"/>
  <path class="cls-1" d="M217.78,310.46h-32.91v-16.03h32.91v16.03Z"/>
  <path class="cls-1" d="M1269.78,467.26v15.97h-33.27v-15.97h33.27Z"/>
  <path class="cls-1" d="M1131,643.49v33.19h-15.78v-33.19h15.78Z"/>
  <path class="cls-1" d="M39.25,483.2v-15.95h33.27v15.95h-33.27Z"/>
  <path class="cls-1" d="M1238.72,742.9v-15.78h33.13v15.78h-33.13Z"/>
  <path class="cls-1" d="M397.95,51.09h-15.73V18.01h15.73v33.08Z"/>
  <path class="cls-1" d="M110.05,742.93v-15.83h32.84v15.83h-32.84Z"/>
  <path class="cls-1" d="M1205.44,54.43h16.17v16.3h-16.17v-16.3Z"/>
  <path class="cls-1" d="M1127.91,1191.03v16.66h-16.7v-16.48h16.88l-.18-.18Z"/>
  <path class="cls-1" d="M298.89,1251.96h16.62v16.73h-16.45c0-5.74,0-11.32,0-16.9,0,0-.17.17-.17.17Z"/>
  <path class="cls-1" d="M1000.3,912.77h-17.06v-16.45h16.87c0,5.53,0,11.07,0,16.61,0,0,.18-.16.18-.16Z"/>
  <path class="cls-1" d="M37.85,1090h16.72v16.64h-16.55c0-5.65,0-11.22,0-16.8,0,0-.17.17-.17.17Z"/>
  <path class="cls-1" d="M299.04,1081.1h16.37v16.64h-16.2v-16.81l-.18.17Z"/>
  <path class="cls-1" d="M386.17,931.44v-16.02h16.13v16.02h-16.13Z"/>
  <path class="cls-1" d="M1202.35,398.53h16.21v16.25h-16.21v-16.25Z"/>
  <path class="cls-1" d="M1029.14,506.02h-16.79v-16.41h16.61c0,5.43,0,11.01,0,16.58,0,0,.18-.18.18-.18Z"/>
  <path class="cls-1" d="M619.78,323.2h16.78v16.45h-16.6c0-5.57,0-11.1,0-16.63,0,0-.18.18-.18.18Z"/>
  <path class="cls-1" d="M1166,506.23v-16.67h16.53v16.48c-5.56,0-11.13,0-16.7,0,0,0,.18.18.18.18Z"/>
  <path class="cls-1" d="M482.94,322.98v17.07c-5.99,0-11.57,0-17.15,0,0,0,.18.17.18.17,0-5.45,0-10.89,0-17.06,6.03,0,11.59,0,17.16,0,0,0-.18-.18-.18-.18Z"/>
  <path class="cls-1" d="M195.74,1080.91v16.73h-16.27v-16.56h16.43l-.16-.16Z"/>
  <path class="cls-1" d="M299.22,1080.93h-16.81v-16.54h16.63c0,5.58,0,11.15,0,16.72,0,0,.18-.17.18-.17Z"/>
  <path class="cls-1" d="M195.9,1081.07c.24-5.42.47-10.85.73-16.63h16.05v16.47c-5.76,0-11.35,0-16.94,0,0,0,.16.16.16.16Z"/>
  <path class="cls-1" d="M58.95,71.21v-16.63h16.78v16.46c-5.77,0-11.36,0-16.95,0,0,0,.17.17.17.17Z"/>
  <path class="cls-1" d="M1046.55,642.72v-16.34h16.01v16.34h-16.01Z"/>
  <path class="cls-1" d="M75.33,778.26h16.39v16.5c-4.68,0-9.27.15-13.84-.13-.9-.06-2.38-1.72-2.44-2.71-.27-4.42-.12-8.87-.12-13.66Z"/>
  <path class="cls-1" d="M1128.09,1191.21v-16.79h16.22v16.61c-5.55,0-10.97,0-16.4,0,0,0,.18.18.18.18Z"/>
  <path class="cls-1" d="M162.16,1184.35v-17.11h16.47v15.92c-5.51.34-11.06.68-16.61,1.02,0,0,.15.17.15.17Z"/>
  <path class="cls-1" d="M195.9,1251.76v16.87h-16.41v-15.95c5.46-.24,11.02-.49,16.58-.75,0,0-.17-.17-.17-.17Z"/>
  <path class="cls-1" d="M90.62,398.6h16.17v16.09h-16.17v-16.09Z"/>
  <path class="cls-1" d="M1132.26,626.28h15.97v16.45h-15.97v-16.45Z"/>
  <path class="cls-1" d="M546.03,596.2c-5.44-.31-10.87-.63-16.67-.96v-15.94h16.52c0,5.84,0,11.44,0,17.05,0,0,.15-.15.15-.15Z"/>
  <path class="cls-1" d="M1235.74,415.92v15.86h-16.4v-15.86h16.4Z"/>
  <path class="cls-1" d="M332.65,1184.51c-5.3-.47-10.6-.95-16.22-1.45v-15.82h16.2c0,5.81,0,11.57,0,17.33,0,.01.03-.06.03-.06Z"/>
  <path class="cls-1" d="M89.8,431.92h-16.46v-16.06h16.46v16.06Z"/>
  <path class="cls-1" d="M649.12,595.61v-16.2h16.52c0,4.61.14,9.34-.14,14.05-.05.78-1.94,1.99-3.04,2.06-4.28.24-8.58.1-13.34.1Z"/>
  <path class="cls-1" d="M92.72,1250.84h-16.09v-15.96h16.09v15.96Z"/>
  <path class="cls-1" d="M1204.73,1234.87v15.84h-16.25v-15.84h16.25Z"/>
  <path class="cls-1" d="M150.27,241.75v-15.7h16.49v15.7h-16.49Z"/>
  <path class="cls-1" d="M59.47,104.89v-15.8h16.23v15.8h-16.23Z"/>
  <path class="cls-1" d="M1221.66,87.66v17.16h-16.27v-15.57c5.48-.49,10.92-.98,16.35-1.47,0-.01-.09-.12-.09-.12Z"/>
  <path class="cls-1" d="M1268.87,1090.59v16.14h-15.8v-16.14h15.8Z"/>
  <path class="cls-1" d="M167.94,243.05h15.67v15.82h-15.67v-15.82Z"/>
  <path class="cls-1" d="M776.04,401.37v16.16h-15.76v-16.16h15.76Z"/>
  <path class="cls-1" d="M1152.84,896.3v16.45h-15.78v-16.45h15.78Z"/>
  <path class="cls-1" d="M855.88,173.95h-15.63v-16.39h15.63v16.39Z"/>
  <path class="cls-1" d="M686.02,173.88v-16.23h15.97v16.23h-15.97Z"/>
  <path class="cls-1" d="M320.71,122.14h-16.09v-15.93h16.09v15.93Z"/>
  <path class="cls-1" d="M386.2,896.98v-15.73h16.17v15.73h-16.17Z"/>
  <path class="cls-1" d="M337.62,258.96h-15.84v-15.89h15.84v15.89Z"/>
  <path class="cls-1" d="M914.15,417.61v-16.17h15.83v16.17h-15.83Z"/>
  <path class="cls-1" d="M214.05,931.64h-15.86v-16.28h15.86v16.28Z"/>
  <path class="cls-1" d="M1205.35,1267.89v-15.74h16.26v15.74h-16.26Z"/>
  <path class="cls-1" d="M75.63,1267.89h-16.12v-15.7h16.12v15.7Z"/>
  <path class="cls-1" d="M891.62,790.92v15.85h-16.24v-15.85h16.24Z"/>
  <path class="cls-1" d="M449.58,1198.21v15.58h-16.32v-15.58h16.32Z"/>
  <path class="cls-1" d="M528.43,578.12h-16.15v-15.82h16.15v15.82Z"/>
  <path class="cls-1" d="M682.65,578.25h-16.25v-16.01h16.25v16.01Z"/>
  <path class="cls-1" d="M955.87,1224.78h-15.75v-16.23h15.75v16.23Z"/>
  <path class="cls-1" d="M150.42,275.99v-15.78h16.28v15.78h-16.28Z"/>
  <path class="cls-1" d="M737.62,806.96h-16.23v-16.04h16.23v16.04Z"/>
  <path class="cls-1" d="M338.71,241.9v-15.91h16.06v15.91h-16.06Z"/>
  <path class="cls-1" d="M338.77,276.05v-15.82h15.89v15.82h-15.89Z"/>
  <path class="cls-1" d="M703.19,1075.88h15.9v16.01h-15.9v-16.01Z"/>
  <path class="cls-1" d="M569.07,1214.05h-15.82v-15.75h15.82v15.75Z"/>
  <path class="cls-1" d="M856.05,72.29v15.72h-15.79v-15.72h15.79Z"/>
  <path class="cls-1" d="M519.06,1198.12h15.76v15.82h-15.76v-15.82Z"/>
  <path class="cls-1" d="M399.23,1198.12h15.77v15.81h-15.77v-15.81Z"/>
  <path class="cls-1" d="M184.87,121.98v-15.72h15.95v15.72h-15.95Z"/>
  <path class="cls-1" d="M823.1,1075.94h15.69v15.96h-15.69v-15.96Z"/>
  <path class="cls-1" d="M701.8,88.18h-15.64v-15.83h15.64v15.83Z"/>
  <path class="cls-1" d="M214,897.15h-15.85v-15.82h15.85v15.82Z"/>
  <path class="cls-1" d="M754.1,1144.28v-17.03h16.55v16.85c-5.61,0-11.17,0-16.72,0,0,0,.16.18.16.18Z"/>
</svg>